<?xml version="1.0" encoding="iso-8859-1"?>
<!-- Generator: Adobe Illustrator 19.0.0, SVG Export Plug-In . SVG Version: 6.00 Build 0)  -->
<svg xmlns="http://www.w3.org/2000/svg" xmlns:xlink="http://www.w3.org/1999/xlink" version="1.1" id="Layer_1" x="0px" y="0px" viewBox="0 0 512 512" style="enable-background:new 0 0 512 512;" xml:space="preserve" width="512" height="512">
<g>
	<polygon style="fill:#B3D7FC;" points="418,106 16,106 16,416 496,416 496,246  "/>
	<polygon style="fill:#C8E7F9;" points="356,146 356,246 496,246 440.286,146  "/>
	<circle style="fill:#6E6E6E;" cx="135" cy="411" r="45"/>
	<circle style="fill:#6E6E6E;" cx="377" cy="411" r="45"/>
	<rect x="10" y="376" style="fill:#AAAAA0;" width="40" height="40"/>
	<rect x="66" y="66" style="fill:#AAAAA0;" width="40" height="40"/>
	<polygon style="fill:#C8E7F9;" points="316,66 276,56 276,106 316,106  "/>
	<rect x="66" y="286" style="fill:#FA9C5F;" width="230" height="40"/>
	<rect x="86" y="196" style="fill:#C8E7F9;" width="190" height="90"/>
	<rect x="462" y="376" style="fill:#AAAAA0;" width="40" height="40"/>
	<rect x="101" y="146" style="fill:#FC5B5B;" width="40" height="50"/>
	<polygon style="fill:#F0F0F0;" points="86,146 56,196 101,196 101,146  "/>
	<rect x="141" y="146" style="fill:#F0F0F0;" width="40" height="50"/>
	<rect x="181" y="146" style="fill:#FC5B5B;" width="40" height="50"/>
	<polygon style="fill:#FC5B5B;" points="276,146 261,146 261,196 306,196  "/>
	<rect x="221" y="146" style="fill:#F0F0F0;" width="40" height="50"/>
	<g>
		<path d="M506,366.837V246c0-2-0.63-3.683-1.25-4.837c-0.005-0.01-0.009-0.02-0.014-0.03l-78-140C424.97,97.964,421.627,96,418,96    h-92V66c0-4.589-3.123-8.589-7.575-9.701l-40-10c-2.985-0.746-6.152-0.076-8.58,1.819C267.419,50.012,266,52.921,266,56v40H116V66    c0-5.522-4.477-10-10-10H66c-5.523,0-10,4.478-10,10v30H16c-5.523,0-10,4.478-10,10v260.838C2.469,368.381,0,371.9,0,376v40    c0,5.522,4.477,10,10,10h72.096c6.547,23.057,27.777,40,52.904,40s46.356-16.943,52.904-40h136.193    c6.547,23.057,27.777,40,52.904,40s46.356-16.943,52.904-40H502c5.523,0,10-4.478,10-10v-40    C512,371.9,509.531,368.381,506,366.837z M434.41,156l44.572,80H366v-80H434.41z M286,68.807l20,5V96h-20V68.807z M76,76h20v20H76    V76z M40,406H20v-20h20V406z M135,446c-19.299,0-35-15.701-35-35s15.701-35,35-35s35,15.701,35,35S154.299,446,135,446z M377,446    c-19.299,0-35-15.701-35-35s15.701-35,35-35s35,15.701,35,35S396.299,446,377,446z M452,376v30h-20.238    c-2.536-27.991-26.122-50-54.762-50s-52.227,22.009-54.762,50H189.762c-2.536-27.991-26.122-50-54.762-50    s-52.227,22.009-54.762,50H60v-30c0-5.522-4.477-10-10-10H26V116h386.124l11.143,20H356c-5.523,0-10,4.478-10,10v100    c0,5.522,4.477,10,10,10h130v110h-24C456.477,366,452,370.477,452,376z M492,406h-20v-20h20V406z"/>
		<path d="M386,276h-30c-5.523,0-10,4.478-10,10s4.477,10,10,10h30c5.523,0,10-4.478,10-10S391.523,276,386,276z"/>
		<path d="M284.575,140.855C282.768,137.843,279.513,136,276,136H86c-3.513,0-6.768,1.843-8.575,4.855l-30,50    c-1.854,3.089-1.902,6.937-0.127,10.071C49.073,204.062,52.397,206,56,206h20v70H66c-5.523,0-10,4.478-10,10v40    c0,5.522,4.477,10,10,10h230c5.523,0,10-4.478,10-10v-40c0-5.522-4.477-10-10-10h-10v-70h20c3.603,0,6.927-1.938,8.702-5.073    c1.775-3.135,1.727-6.982-0.127-10.071L284.575,140.855z M231,156h20v30h-20V156z M191,156h20v30h-20V156z M151,156h20v30h-20V156    z M111,156h20v30h-20V156z M96,206h170v70H96V206z M73.662,186L91,157.103V186H73.662z M286,316H76v-20h210V316z M271,186v-28.896    L288.338,186H271z"/>
		<circle cx="377" cy="411" r="10"/>
		<circle cx="135" cy="411" r="10"/>
	</g>
</g>















</svg>
